<?xml version="1.0" encoding="UTF-8" standalone="no"?>
<!-- Created with Inkscape (http://www.inkscape.org/) -->

<svg
   xmlns:dc="http://purl.org/dc/elements/1.1/"
   xmlns:cc="http://creativecommons.org/ns#"
   xmlns:rdf="http://www.w3.org/1999/02/22-rdf-syntax-ns#"
   xmlns:svg="http://www.w3.org/2000/svg"
   xmlns="http://www.w3.org/2000/svg"
   xmlns:xlink="http://www.w3.org/1999/xlink"
   xmlns:sodipodi="http://sodipodi.sourceforge.net/DTD/sodipodi-0.dtd"
   xmlns:inkscape="http://www.inkscape.org/namespaces/inkscape"
   id="svg2211"
   sodipodi:version="0.32"
   inkscape:version="0.48.2 r9819"
   width="427.34579"
   height="530"
   version="1.0"
   sodipodi:docname="fslogo.svg"
   inkscape:output_extension="org.inkscape.output.svg.inkscape"
   inkscape:export-filename="C:\Development\PHP\fsesu_logo.png"
   inkscape:export-xdpi="9.5200005"
   inkscape:export-ydpi="9.5200005">
  <metadata
     id="metadata2216">
    <rdf:RDF>
      <cc:Work
         rdf:about="">
        <dc:format>image/svg+xml</dc:format>
        <dc:type
           rdf:resource="http://purl.org/dc/dcmitype/StillImage" />
        <dc:title />
      </cc:Work>
    </rdf:RDF>
  </metadata>
  <defs
     id="defs2214">
    <linearGradient
       id="linearGradient3149">
      <stop
         style="stop-color:#000000;stop-opacity:0;"
         offset="0"
         id="stop3151" />
      <stop
         style="stop-color:#000000;stop-opacity:1;"
         offset="1"
         id="stop3153" />
    </linearGradient>
    <linearGradient
       inkscape:collect="always"
       xlink:href="#linearGradient3149"
       id="linearGradient3155"
       x1="-1.9919029"
       y1="265.08096"
       x2="436.22672"
       y2="265.08096"
       gradientUnits="userSpaceOnUse" />
  </defs>
  <sodipodi:namedview
     inkscape:window-height="573"
     inkscape:window-width="739"
     inkscape:pageshadow="2"
     inkscape:pageopacity="0.0"
     guidetolerance="10.0"
     gridtolerance="10.0"
     objecttolerance="10.0"
     borderopacity="1.0"
     bordercolor="#666666"
     pagecolor="#ffffff"
     id="base"
     inkscape:zoom="0.62225397"
     inkscape:cx="-12.486682"
     inkscape:cy="280.99995"
     inkscape:window-x="26"
     inkscape:window-y="29"
     inkscape:current-layer="svg2211"
     showgrid="false"
     showguides="true"
     inkscape:guide-bbox="true"
     fit-margin-top="10"
     fit-margin-left="20"
     fit-margin-right="20"
     fit-margin-bottom="20"
     inkscape:window-maximized="0" />
  <path
     id="path2220"
     style="fill:#ff0000"
     d="m 295.20969,404.13859 c -1.37638,-1.37639 -0.0651,-4.11867 7.51823,-15.72286 10.98266,-16.80591 14.57494,-22.96805 14.57494,-25.00154 0,-1.34293 0.88233,-3.17396 1.96073,-4.06894 1.0784,-0.895 2.52953,-3.49663 3.22474,-5.78142 0.69522,-2.28479 2.2311,-6.80228 3.4131,-10.03888 1.18198,-3.2366 1.88667,-6.88813 1.56596,-8.11451 -0.71562,-2.73657 14.65049,-21.47846 18.16464,-22.15521 1.98951,-0.38315 2.31938,0.16551 1.78385,2.96699 -0.73865,3.86403 -0.55706,3.988 3.02988,2.06832 5.46451,-2.92452 2.59944,6.20605 -5.79849,18.47898 -2.56853,3.7537 -3.45523,6.05859 -2.45853,6.39081 0.85739,0.28581 1.5589,1.36258 1.5589,2.3928 0,1.03025 0.32706,1.87319 0.72678,1.87319 2.17627,0 8.50202,-4.46407 12.99737,-9.17222 2.82129,-2.95482 6.31543,-5.37241 7.76479,-5.37241 2.9905,0 2.3656,1.099 -4.96095,8.72474 -2.1817,2.2708 -4.6375,4.95549 -5.45735,5.96598 -4.73609,5.83738 -16.45029,10.79485 -25.34719,10.72697 -2.31891,-0.0177 -3.74153,1.4362 -6.01341,6.14559 -1.63676,3.39282 -5.69869,10.06421 -9.02651,14.82529 -3.32783,4.76106 -6.50845,10.10528 -7.06809,11.87602 -0.55963,1.77073 -2.12215,3.99701 -3.47229,4.94729 -1.35015,0.95027 -2.4548,2.58655 -2.4548,3.63615 0,1.04962 -0.59501,1.90839 -1.32223,1.90839 -0.72723,0 -1.32224,0.89251 -1.32224,1.98336 0,2.34387 -1.53365,2.56529 -3.58183,0.51712 z m -23.32482,-4.71834 c 0.69617,-1.97131 0.52685,-2.10913 -0.93021,-0.75718 -0.97971,0.90905 -2.5548,1.6528 -3.5002,1.6528 -3.05559,0 -1.83182,-4.84272 2.8872,-11.42521 2.53337,-3.53376 5.41824,-8.21003 6.41083,-10.39173 0.99259,-2.18169 3.3824,-5.83764 5.31068,-8.12431 1.92828,-2.28667 3.50596,-5.73649 3.50596,-7.66629 0,-2.0762 3.15227,-8.22903 7.72113,-15.0706 4.2466,-6.35905 8.13767,-13.22164 8.6468,-15.25019 0.78085,-3.11116 7.1901,-13.83254 11.2157,-18.76161 0.63135,-0.77303 1.84433,-2.7068 2.69552,-4.29727 2.2047,-4.1195 4.44523,-3.58755 7.3122,1.73609 2.43503,4.52158 2.43558,4.73307 0.0236,9.21188 -1.35778,2.52123 -3.98024,5.71039 -5.82773,7.08702 -1.84748,1.37666 -5.2891,5.20722 -7.64803,8.51239 -3.6727,5.14592 -3.91019,5.91034 -1.6528,5.32003 5.81255,-1.52002 1.10458,11.95729 -5.01652,14.36057 -1.88181,0.73884 -10.60333,12.71844 -12.65004,17.37566 -1.0259,2.33442 -2.64385,6.32692 -3.59545,8.87223 -0.9516,2.54531 -2.50888,5.10366 -3.46063,5.68521 -0.95173,0.58157 -1.73044,2.18826 -1.73044,3.57046 0,1.38219 -0.74375,2.98889 -1.65279,3.57045 -0.90905,0.58156 -2.31159,2.2474 -3.11676,3.70186 -1.94919,3.52099 -6.13204,4.44052 -4.94799,1.08774 z m 4.42859,-7.19971 c 0,-2.30192 -2.35237,-1.09794 -3.04735,1.5597 -0.58366,2.2319 -0.37405,2.44015 1.16801,1.16035 1.03363,-0.85784 1.87934,-2.08187 1.87934,-2.72005 z M 85.273107,371.62835 c 1.12311,-2.68797 3.57121,-6.89211 5.440235,-9.34252 1.86901,-2.45041 3.054625,-4.79887 2.63469,-5.21881 -0.41994,-0.41994 -1.1387,0.21414 -1.59724,1.40907 -0.458535,1.19494 -1.90435,2.17262 -3.212935,2.17262 -1.796965,0 -2.204855,-0.72808 -1.66675,-2.97505 0.706095,-2.94834 11.900711,-20.73773 14.031473,-22.29743 0.6094,-0.44607 1.3177,-4.61111 1.574,-9.25567 1.2883,-23.34616 1.81697,-26.29484 4.71438,-26.29484 2.0489,0 2.5204,0.96625 2.5204,5.16516 0,4.5142 0.33328,5.078 2.64447,4.47363 2.21868,-0.5802 2.64448,-0.0406 2.64448,3.35134 0,2.2236 -0.49579,4.34932 -1.10178,4.72383 -0.60598,0.37452 -0.85281,2.37725 -0.54851,4.45053 0.34965,2.38239 -0.21806,4.40972 -1.5427,5.50908 -1.15278,0.95672 -2.09596,2.55914 -2.09596,3.56094 0,1.0018 -0.50464,1.82146 -1.12143,1.82146 -2.1294,0 -6.05002,10.54654 -4.49769,12.09888 1.0295,1.02951 0.71918,2.70461 -1.10166,5.94644 -1.39418,2.48223 -2.53489,5.05943 -2.53489,5.72706 0,0.66766 -1.487522,2.81896 -3.305598,4.78071 -1.818085,1.96174 -3.3056,4.11462 -3.3056,4.78417 0,2.20885 -6.88804,10.29663 -8.769235,10.29663 -1.541715,0 -1.50927,-0.80154 0.19785,-4.88723 z m 31.049443,2.17414 c 0,-1.4922 1.16568,-4.91349 2.59038,-7.60287 1.4247,-2.68939 4.68648,-9.50111 7.24837,-15.13714 4.39323,-9.6649 7.35036,-12.92314 7.35036,-8.09879 0,1.18173 -1.5506,5.60379 -3.44578,9.8268 -1.89517,4.22303 -3.2017,8.41049 -2.90337,9.30547 0.87832,2.63496 12.96034,-17.37381 12.96034,-21.4633 0,-2.02468 1.05916,-4.74568 2.35368,-6.04666 4.41714,-4.43925 5.62572,-6.65722 4.79998,-8.80903 -0.45396,-1.18302 -1.65423,-2.15095 -2.66728,-2.15095 -3.47034,0 -1.83958,-4.97377 4.17473,-12.73274 6.91555,-8.92164 9.21196,-10.38824 8.231,-5.25671 -0.38742,2.0266 0.011,3.91676 0.94208,4.46985 3.26637,1.94022 4.83309,6.71705 3.24163,9.88344 -1.08324,2.15525 -0.5567,1.88199 1.91086,-0.99168 5.84808,-6.81052 6.10258,-7.14139 6.10258,-7.93343 0,-0.42501 0.59079,-1.49138 1.31286,-2.36973 0.72207,-0.87834 3.37308,-4.27453 5.89111,-7.54707 2.51807,-3.27253 5.35661,-6.85062 6.3079,-7.9513 0.95128,-1.10067 3.10085,-3.92695 4.7768,-6.28062 1.67599,-2.35369 3.53232,-4.27942 4.1252,-4.27942 2.22311,0 2.47167,5.74371 0.3863,8.92638 -1.18955,1.81549 -2.03134,5.25314 -1.87063,7.63924 0.32003,4.75225 -6.51359,19.99578 -14.50564,32.35722 -2.58598,3.99977 -6.19407,9.94985 -8.01795,13.22239 -6.30463,11.31212 -10.9518,18.51134 -11.94927,18.51134 -1.79665,0 -1.05228,-6.37133 0.98205,-8.40565 1.09084,-1.09085 1.98336,-2.6104 1.98336,-3.37676 0,-0.76637 2.38003,-5.28191 5.28895,-10.03454 2.90893,-4.7526 5.28896,-8.991 5.28896,-9.41865 0,-0.42762 1.48752,-2.54532 3.3056,-4.70598 1.81807,-2.16066 3.30559,-5.28784 3.30559,-6.94927 0,-5.28485 -5.43673,-2.72393 -9.8595,4.64418 -2.15019,3.58212 -4.56225,6.51294 -5.36014,6.51294 -1.91115,0 -9.90289,8.28338 -9.90289,10.26429 0,0.84911 -1.69877,3.49833 -3.77506,5.88713 -2.07628,2.38881 -7.46324,9.55346 -11.97103,15.92146 -7.0422,9.94832 -8.5387,11.39476 -10.63071,10.27514 -1.77617,-0.95058 -2.87379,-0.77407 -4.05775,0.65252 -2.28201,2.74965 -3.94367,2.43048 -3.94367,-0.7575 z M 36.993933,356.78988 c -0.0031,-1.0315 2.87623,-5.82536 6.398607,-10.65302 4.892998,-6.7062 6.167795,-9.41694 5.402021,-11.48701 -0.669318,-1.80934 -0.164223,-3.9807 1.520401,-6.53609 1.387492,-2.10465 2.526627,-5.9389 2.531415,-8.52058 0.0048,-2.58166 0.722721,-5.40795 1.5954,-6.28062 1.234085,-1.2341 1.112148,-1.58669 -0.548743,-1.58669 -2.532127,0 -12.230432,10.67033 -14.996664,16.49971 -1.06944,2.25368 -3.764612,6.3058 -5.989272,9.00469 -4.860165,5.89623 -10.607657,6.8909 -12.862968,1.94105 C 20.04413,339.27198 20,56.261531 20,56.261531 l 221.83691,-0.09947 c 0,0 0.79918,3.568337 -3.02579,7.373667 l -5.30919,5.281933 -201.404843,0 0,258.055479 c 0.630001,0 4.524438,-4.32144 7.592311,-8.86664 8.100089,-12.00064 11.291391,-14.42752 17.934796,-13.63892 5.343008,0.63426 5.543923,0.50445 12.511818,-8.08363 3.89489,-4.80053 8.99069,-9.52591 11.323995,-10.50082 2.333315,-0.97493 5.9256,-4.15154 7.98287,-7.05916 4.62893,-6.54224 7.476665,-6.68016 14.133853,-0.68452 2.80741,2.52843 6.4372,4.59716 8.06623,4.59716 1.74805,0 4.23506,1.66137 6.06873,4.05402 3.84931,5.02272 19.05818,17.1018 21.53304,17.1018 1.00271,0 5.18553,-3.63845 9.29514,-8.08545 6.61511,-7.15818 7.88777,-7.98302 11.0971,-7.1922 10.48046,2.58255 9.63855,2.94898 19.49194,-8.48378 5.09062,-5.90659 11.12941,-11.91315 13.41953,-13.34789 2.37939,-1.49066 5.05949,-4.84702 6.25371,-7.83164 1.14941,-2.87266 4.12128,-8.06755 6.60417,-11.54421 2.48286,-3.47664 6.48857,-10.10701 8.90157,-14.73416 2.413,-4.62713 5.15981,-8.70942 6.10402,-9.07174 2.26757,-0.87016 7.86358,3.56933 21.67313,17.19394 12.78691,12.61564 17.24913,14.43807 26.94762,11.00579 3.07604,-1.0886 6.11201,-1.41535 7.27231,-0.7827 3.62721,1.97772 15.44511,15.11233 17.8314,19.81807 1.29072,2.54531 3.31241,5.55848 4.49265,6.69594 1.18021,1.13744 4.45421,4.83643 7.27553,8.21996 4.1174,4.93787 6.59622,6.57712 12.56128,8.30683 5.01494,1.4542 8.5347,3.47235 10.82387,6.20613 1.86575,2.22815 4.75985,4.25987 6.43133,4.51496 3.15199,0.48102 11.99333,-4.15194 11.99333,-6.28465 0,-3.83929 6.04958,0.63954 20.93809,15.5015 14.13944,14.11428 23.38432,19.13524 26.23863,19.13524 l 0,-264.214709 -71.63814,0 c 0,-0.75271 1.97302,-4.624852 4.13107,-7.471448 l 3.93019,-5.184152 76.0316,0 c 0,0 0,283.213529 0,283.210139 -1.02452,2.24858 -5.57759,2.76516 -7.69856,2.76516 -5.34168,0 -20.31943,-8.09145 -27.39023,-14.79707 -18.88476,-17.90942 -22.23766,-20.90338 -23.40943,-20.90338 -0.70044,0 -3.4626,1.48752 -6.13815,3.3056 -6.91402,4.6982 -10.00149,4.27937 -14.41235,-1.95513 -3.43113,-4.84972 -4.20818,-5.26294 -9.94617,-5.28895 -6.96803,-0.0316 -6.91335,-0.0824 -19.6331,18.22744 -6.19678,8.92011 -9.6421,12.13642 -11.26363,10.51489 -0.8317,-0.83169 3.74771,-8.91758 5.05671,-8.92863 0.54542,-0.004 0.99167,-0.62876 0.99167,-1.38705 0,-0.75828 2.28832,-4.47708 5.08515,-8.264 2.79682,-3.7869 6.09071,-8.83078 7.31974,-11.20861 2.1902,-4.23744 2.16486,-4.41474 -1.27536,-8.92512 -1.93049,-2.53097 -3.95933,-4.60178 -4.50856,-4.60178 -0.54923,0 -4.04423,-4.63904 -7.76665,-10.30899 -8.25427,-12.57279 -14.14486,-18.46667 -19.53344,-19.54439 -3.83201,-0.7664 -4.36916,-0.35095 -8.88878,6.87459 -2.87078,4.58955 -4.8103,9.35965 -4.8103,11.83055 0,2.50194 -1.56967,6.30713 -3.96672,9.61615 -2.1817,3.01175 -3.96671,6.8996 -3.96671,8.63968 0,2.16843 -2.12105,4.97987 -6.74205,8.93654 -8.98755,7.69549 -10.26847,8.92589 -16.1096,15.47437 -5.36796,6.01797 -8.10117,6.20741 -6.7056,0.46475 0.86238,-3.54864 0.85878,-3.55053 -1.9785,-1.03627 -1.56336,1.38536 -2.84247,3.04573 -2.84247,3.68969 0,1.67752 -5.58083,8.99721 -6.85985,8.99721 -2.31498,0 -0.35524,-10.78772 3.24275,-17.85023 1.29617,-2.54428 1.24851,-2.55679 -1.25812,-0.33056 -3.31314,2.94258 -5.38216,2.94258 -5.97484,0 -0.56252,-2.79287 -12.40081,14.16412 -16.69797,23.91793 -3.02697,6.87071 -5.8888,7.65913 -6.58265,1.81348 -0.4555,-3.83763 4.25873,-11.42315 18.42185,-29.64208 4.64008,-5.96883 11.35884,-14.84026 14.93055,-19.7143 6.46564,-8.82309 6.50409,-8.84949 8.78514,-6.03251 1.98976,2.45725 2.50466,2.572 3.91521,0.87239 2.205,-2.65689 6.58928,-2.50471 6.58928,0.22871 0,1.71878 0.59477,1.50695 2.78432,-0.99168 4.30821,-4.91636 10.43806,-14.07844 10.43806,-15.60144 0,-0.75333 1.00936,-3.48634 2.24301,-6.07334 l 2.24302,-4.70364 -10.03129,-9.55529 c -10.31445,-9.82498 -11.32085,-10.69219 -16.89645,-14.55982 -4.24861,-2.94714 -4.95864,-2.86463 -6.08649,0.70726 -0.51666,1.63627 -3.85571,7.30109 -7.42007,12.58847 -3.56436,5.2874 -7.68437,12.42749 -9.15554,15.86687 -2.58318,6.03902 -7.23172,12.20351 -9.20251,12.20351 -1.93856,0 -9.54622,7.5129 -16.06697,15.86686 -12.60407,16.14752 -17.91998,19.48693 -16.58944,10.42134 0.49888,-3.3992 0.17262,-3.81015 -3.02514,-3.81015 -2.56678,0 -4.84789,1.51088 -8.03499,5.32189 -7.52552,8.99866 -26.64772,29.54162 -30.58461,32.85701 -3.83504,3.22963 -6.41148,3.22414 -3.34882,-0.007 0.94367,-0.99562 3.43295,-4.33899 5.53174,-7.42973 2.0988,-3.09073 4.22439,-5.61951 4.72354,-5.61951 1.15741,0 7.98847,-10.37888 7.98847,-12.13744 0,-1.4483 -5.31857,-6.2594 -6.99757,-6.32992 -1.38156,-0.058 -4.2034,-2.32352 -10.03323,-8.05509 -2.63237,-2.58802 -8.6135,-7.0053 -13.29138,-9.81615 l -8.505238,-5.11066 -5.04414,5.84944 c -2.774265,3.21719 -5.04574,6.25206 -5.047715,6.74417 -0.0015,0.4921 -1.044835,1.19726 -2.317485,1.56704 -1.832305,0.53238 -1.7635,0.62823 0.33056,0.46052 6.945115,-0.55626 7.775175,5.78459 1.954155,14.92794 -2.08342,3.27254 -5.597625,8.92511 -7.809345,12.56126 -2.211725,3.63616 -6.73727,9.58624 -10.056765,13.2224 -8.029305,8.79527 -6.86563,4.55114 3.74896,-13.67303 5.046375,-8.6641 7.4403,-13.99655 6.534805,-14.55618 -0.78594,-0.48574 -1.62614,-2.92324 -1.86712,-5.41669 l -0.438125,-4.53352 -3.871805,5.09637 c -3.0268,3.9841 -3.810015,6.29015 -3.58866,10.56625 0.256225,4.94988 -0.227675,5.88038 -5.090155,9.78798 -2.955325,2.37496 -5.217993,5.02051 -5.028173,5.87897 0.189835,0.85849 -1.843306,4.83343 -4.518103,8.8332 -6.224718,9.3082 -16.895998,21.06269 -16.903438,18.61924 z M 267.20927,329.19801 c -0.75938,-1.4189 -1.00495,-2.95555 -0.54571,-3.41479 0.45924,-0.45923 0.14079,-0.83497 -0.70763,-0.83497 -0.84845,0 -1.54261,0.89252 -1.54261,1.98336 0,1.09085 -0.89252,1.98336 -1.98337,1.98336 -1.09085,0 -1.98335,-0.6705 -1.98335,-1.49002 0,-1.96276 10.75202,-21.52147 12.14348,-22.0899 0.5934,-0.24242 1.0789,-1.28368 1.0789,-2.31392 0,-1.03025 0.47548,-1.87318 1.05661,-1.87318 0.58114,0 1.78915,-2.02577 2.68447,-4.50171 2.12111,-5.86584 6.10084,-7.74884 5.19305,-2.4571 -0.34468,2.00928 -1.05352,4.84323 -1.5752,6.2977 -0.52168,1.45446 1.413,0.0358 4.29928,-3.15261 5.01749,-5.54271 5.31201,-5.67708 6.71158,-3.06199 0.80509,1.50433 1.46379,4.58022 1.46379,6.8353 0,7.35523 -6.89593,14.2773 -8.27302,8.3044 -0.42847,-1.85845 -0.87972,-1.59818 -2.29255,1.32224 -0.96748,1.99989 -2.25856,3.63616 -2.86906,3.63616 -0.61049,0 -1.11,0.91119 -1.11,2.02485 0,1.11369 -0.8925,2.36735 -1.98335,2.78595 -1.09085,0.4186 -1.98336,1.60862 -1.98336,2.64448 0,1.03586 -0.8891,2.22457 -1.97577,2.64156 -1.08667,0.417 -1.73443,1.14865 -1.43947,1.62588 0.29495,0.47725 -0.25625,1.95155 -1.22489,3.27623 -1.69456,2.31745 -1.81336,2.31097 -3.14182,-0.17128 z m 13.07091,-24.2394 c 0,-0.72723 -0.595,-0.95451 -1.32225,-0.50505 -0.72723,0.44944 -1.32224,1.41218 -1.32224,2.13941 0,0.72723 0.59501,0.95451 1.32224,0.50506 0.72725,-0.44945 1.32225,-1.41219 1.32225,-2.13942 z m 11.23903,-62.79722 c -6.9574,-1.74301 -11.61266,-4.57578 -24.35703,-14.82157 -10.65681,-8.56752 -15.39005,-11.49728 -20.88839,-12.92941 -3.9101,-1.01846 -9.57265,-3.04192 -12.58346,-4.49658 -6.40634,-3.0952 -15.73607,-3.44516 -19.89918,-0.74641 -4.0741,2.64103 -24.2083,5.87263 -28.71217,4.60838 -1.38092,-0.38763 -2.1183,0.62911 -2.42759,3.34734 -0.52813,4.6413 -3.51678,7.23516 -8.40285,7.29291 -1.95696,0.0231 -3.92586,0.63706 -4.37531,1.36429 -0.44945,0.72723 -2.49425,1.32224 -4.54397,1.32224 -2.04973,0 -4.46749,0.89251 -5.37283,1.98336 -1.9286,2.32383 -5.481,2.58464 -7.51399,0.55166 -1.02741,-1.02742 -2.36524,-0.36345 -4.84576,2.25025 -0.87333,0.92022 -3.19648,3.91832 -4.2556,2.84041 -1.67774,-1.7075 -1.2413,-4.00423 -1.72993,-7.86975 -0.92396,-7.30964 -1.3106,-7.59017 -7.76892,-5.63644 -2.7492,0.83166 -2.97505,0.48675 -2.97505,-4.54319 0,-3.8578 -0.55494,-5.44317 -1.90531,-5.44317 -1.04794,0 -2.27306,0.59501 -2.72252,1.32224 -1.52375,2.46548 -4.57346,1.33819 -5.41135,-2.00024 -0.45864,-1.82737 -2.88044,-1.55913 -3.99289,-2.18168 -3.67743,-2.058 0.46678,-9.75249 11.04488,-20.13314 11.78509,-11.56512 16.63668,-14.28576 25.89648,-14.52202 3.90276,-0.0996 6.84326,-0.83154 7.15952,-1.7822 0.72988,-2.19395 -7.11711,-6.82769 -13.27275,-7.83769 -7.21298,-1.18351 -5.89151,-4.01204 4.35976,-9.33181 8.52801,-4.42549 8.71742,-4.45728 24.46143,-4.10408 8.72677,0.19577 16.63473,-0.12846 17.57324,-0.72048 4.83791,-3.05186 12.25306,-20.79739 14.07719,-33.68881 1.323,-9.34987 6.92949,-18.466523 18.39074,-29.904988 11.66831,-11.6451 25.96158,-27.43989 34.23854,-37.835315 2.87191,-3.60695 6.29344,-6.52636 7.64892,-6.52636 1.55133,0 5.94397,-4.62485 11.9541,-12.58611 8.94141,-11.844086 11.81317,-15.062196 11.81317,-13.237876 0,1.35901 -8.16653,17.085146 -10.83542,20.865586 -1.41188,1.999885 -2.17412,3.63616 -1.69388,3.63616 2.21479,0 11.12025,-8.990535 26.08224,-26.331406 2.72712,-3.16072 4.9584,-5.0087898 4.9584,-4.10684 0,4.25395 -9.3775,18.422121 -18.09652,27.341451 -5.31877,5.440975 -9.6705,10.46142 -9.6705,11.156525 0,3.702385 14.86722,-7.15234 30.73753,-22.441855 5.63356,-5.427385 10.60137,-9.509431 11.03959,-9.071221 1.18447,1.18449 -5.56523,12.858511 -10.5023,18.164386 -2.3684,2.545315 -6.65533,6.38141 -9.5265,8.524665 -5.35181,3.99495 -7.14789,5.91782 -7.18344,7.6905 -0.0351,1.7479 9.3805,-2.825215 22.81643,-11.0819 7.12907,-4.380965 13.60261,-7.75184 14.38566,-7.490825 2.29035,0.76346 -5.46002,8.98331 -13.04541,13.835625 -8.64995,5.53331 -9.37892,8.769135 -1.69887,7.541035 7.81724,-1.250035 7.36214,0.774785 -1.70256,7.57519 -2.85858,2.14452 -3.35344,3.1658 -2.20468,4.549985 2.02685,2.44219 0.40148,6.837675 -3.46535,9.37131 -3.89313,2.550875 -4.1323,5.290355 -0.56084,6.4239 1.45447,0.46163 2.64447,1.3858 2.64447,2.0537 0,1.62694 -8.86045,7.4053 -14.21405,9.269705 -2.36351,0.82311 -4.29729,2.281245 -4.29729,3.240285 0,0.95905 -1.63626,2.95399 -3.63615,4.433208 -3.62015,2.67764 -3.62598,2.7077 -1.32224,6.82863 2.90871,5.20313 2.86975,6.44466 -0.33057,10.53604 -1.42211,1.81808 -2.5989,5.12718 -2.61506,7.35356 -0.0163,2.22637 -1.21942,5.32527 -2.67389,6.88647 -1.45446,1.56118 -2.64448,4.65422 -2.64448,6.87344 0,2.3987 -1.07239,4.95316 -2.64447,6.29923 -1.45447,1.24535 -2.64449,3.27886 -2.64449,4.51892 0,1.24006 -1.48751,3.42473 -3.30559,4.85484 -1.81807,1.43011 -3.3056,3.52432 -3.3056,4.65384 0,2.38691 -5.78709,13.636 -8.63259,16.78025 -2.9909,3.30491 -2.32099,6.48961 1.69084,8.03803 1.99988,0.7719 13.21113,2.18085 24.91388,3.13101 13.7215,1.11408 22.70417,2.46525 25.29455,3.80478 4.00255,2.0698 9.62288,10.85023 9.62288,15.03344 0,1.21047 1.56101,3.83019 3.46891,5.82162 3.18966,3.32929 3.39509,4.21166 2.55182,10.96093 -0.79032,6.32561 -1.58965,7.89496 -5.78283,11.35395 -2.67615,2.20758 -6.94827,4.61195 -9.49358,5.34306 -5.63691,1.61909 -19.51274,2.68352 -23.13917,1.77503 z m -255.511027,174.83298 29.281004,-22.47638 15.40843,20.07326 -4.9534,3.80229 -10.870225,-14.16114 -6.930768,5.32012 9.383043,12.22372 -4.9534,3.80228 -9.383041,-12.22372 -12.443445,9.55169 z m 19.431143,24.84695 25.626876,-26.56741 11.29024,10.89054 c 2.839135,2.73868 4.67189,4.96719 5.498306,6.68554 0.82632,1.71836 1.03758,3.56058 0.63382,5.52667 -0.40387,1.96609 -1.363276,3.73444 -2.878241,5.30505 -1.922925,1.99344 -4.096735,3.07435 -6.521395,3.24271 -2.42474,0.16833 -4.96612,-0.70296 -7.624155,-2.61386 0.5072,1.79533 0.74794,3.46193 0.72226,4.99976 -0.02575,1.53783 -0.394675,3.95737 -1.106805,7.25865 l -1.755615,8.31206 -6.415315,-6.18821 1.69819,-9.52193 c 0.615485,-3.3945 0.92883,-5.60529 0.940015,-6.63237 0.01115,-1.02711 -0.17103,-1.91419 -0.54656,-2.66126 -0.375565,-0.74709 -1.1795,-1.71497 -2.4118,-2.90366 l -1.08734,-1.04886 -10.698265,11.0909 z m 20.152996,-10.15722 3.968805,3.8283 c 2.57334,2.48229 4.285085,3.92351 5.135205,4.32369 0.85005,0.4002 1.71271,0.50931 2.58797,0.32733 0.87519,-0.18197 1.697365,-0.67165 2.466565,-1.46904 0.862335,-0.89403 1.32004,-1.84607 1.373125,-2.85611 0.053,-1.01004 -0.285515,-2.0071 -1.01551,-2.99115 -0.3767,-0.47994 -1.65238,-1.76877 -3.827025,-3.86648 l -4.186275,-4.03806 z m 7.15725,35.5226 20.788658,-30.50241 22.61672,15.41425 -3.51678,5.16001 -16.45798,-11.2168 -4.60866,6.76214 15.31361,10.43686 -3.50258,5.13922 -15.313632,-10.43687 -5.658026,8.30181 17.040558,11.61387 -3.50258,5.13921 z m 28.840438,18.89886 15.31552,-33.5857 24.9029,11.35605 -2.59089,5.68162 -18.12161,-8.2637 -3.39532,7.44566 16.86157,7.68912 -2.58045,5.65871 -16.86158,-7.68912 -4.16842,9.14099 18.7631,8.55623 -2.58045,5.65871 z m 32.85975,1.60996 7.19314,1.15856 c -0.19562,2.46507 0.20713,4.41901 1.20823,5.86179 1.0011,1.4428 2.59761,2.45177 4.78957,3.02692 2.32181,0.60925 4.20018,0.57715 5.63512,-0.0963 1.43487,-0.67342 2.32487,-1.66772 2.67,-2.9829 0.22151,-0.84429 0.16241,-1.62774 -0.17727,-2.35031 -0.33973,-0.72257 -1.06907,-1.46496 -2.18799,-2.22714 -0.76764,-0.51379 -2.55533,-1.53822 -5.3631,-3.07329 -3.61296,-1.97192 -6.01558,-3.86055 -7.20788,-5.66593 -1.67645,-2.53975 -2.144,-5.22222 -1.40269,-8.0474 0.47716,-1.81849 1.43894,-3.384 2.88538,-4.69656 1.4464,-1.31249 3.24836,-2.12823 5.40594,-2.44721 2.15752,-0.31891 4.6083,-0.11838 7.3523,0.60159 4.48127,1.17591 7.59666,3.04332 9.3462,5.60224 1.74945,2.55899 2.25072,5.49325 1.5038,8.80285 l -7.29212,-1.575 c 0.17291,-1.91567 -0.14257,-3.4085 -0.94644,-4.47851 -0.80392,-1.06995 -2.22065,-1.87122 -4.25021,-2.4038 -2.09452,-0.54957 -3.84733,-0.54961 -5.25838,-9e-5 -0.90798,0.35183 -1.48339,0.99046 -1.72623,1.91593 -0.22155,0.84432 -0.0539,1.66057 0.50285,2.44876 0.709,1.00173 2.70841,2.37674 5.99825,4.12502 3.2898,1.74834 5.65885,3.28541 7.10718,4.61125 1.44826,1.32586 2.44602,2.88057 2.99327,4.66416 0.5472,1.78359 0.52472,3.80383 -0.0674,6.06072 -0.53684,2.0458 -1.60786,3.81261 -3.21303,5.30041 -1.60524,1.48778 -3.56095,2.39334 -5.86713,2.71666 -2.30623,0.32334 -5.00993,0.0781 -8.1111,-0.73561 -4.51378,-1.1844 -7.70657,-3.1372 -9.57834,-5.8584 -1.87179,-2.7212 -2.51909,-6.14067 -1.94189,-10.25842 l 0,0 z m 32.28668,20.21137 3.30376,-36.76479 11.91218,1.07045 c 4.51408,0.40569 7.44007,0.85401 8.77799,1.34499 2.05696,0.74105 3.71301,2.09914 4.96813,4.07425 1.25506,1.97515 1.75114,4.42562 1.48826,7.3514 -0.20286,2.25707 -0.78299,4.11785 -1.74039,5.58235 -0.95749,1.46455 -2.10678,2.57895 -3.44791,3.34325 -1.34117,0.76432 -2.67655,1.23 -4.00614,1.397 -1.80378,0.19186 -4.38589,0.13679 -7.74636,-0.1652 l -4.84011,-0.43495 -1.24623,13.8683 z m 10.16804,-29.87831 -0.93749,10.43257 4.06269,0.36508 c 2.92579,0.26295 4.89916,0.24646 5.92015,-0.0495 1.02094,-0.29588 1.84828,-0.82829 2.482,-1.59719 0.63367,-0.76886 0.99935,-1.69668 1.09704,-2.78343 0.12016,-1.33748 -0.17358,-2.47623 -0.8812,-3.41625 -0.70769,-0.93997 -1.65364,-1.57272 -2.83785,-1.89827 -0.87109,-0.24679 -2.64414,-0.49039 -5.31914,-0.73079 l -3.5862,-0.32227 z M 210.87661,510 l -0.92127,-36.90144 7.45076,-0.18601 0.92128,36.90144 z m 14.59722,-0.14516 -5.24309,-36.53868 15.52769,-2.22814 c 3.90475,-0.56027 6.78903,-0.63923 8.65283,-0.23685 1.86377,0.40243 3.44777,1.36646 4.75204,2.89203 1.30422,1.52566 2.11133,3.36852 2.42131,5.52856 0.39337,2.74168 -0.0876,5.12126 -1.44305,7.13873 -1.35547,2.01753 -3.60325,3.48899 -6.74338,4.41439 1.72865,0.70162 3.1921,1.53455 4.39039,2.49878 1.19821,0.96428 2.88185,2.74072 5.05089,5.3293 l 5.48427,6.48809 -8.8231,1.26607 -6.47465,-7.18541 c -2.30197,-2.56952 -3.85492,-4.17392 -4.65888,-4.8132 -0.80399,-0.63927 -1.61612,-1.03995 -2.4364,-1.20207 -0.82032,-0.16209 -2.07787,-0.12153 -3.77271,0.12165 l -1.49544,0.21459 2.18879,15.25351 z m 4.35183,-22.1444 5.45837,-0.78324 c 3.5392,-0.50784 5.72768,-0.97449 6.56543,-1.39997 0.83771,-0.42544 1.45336,-1.03949 1.84696,-1.84214 0.39353,-0.8026 0.51164,-1.75225 0.35431,-2.84895 -0.17647,-1.22955 -0.64709,-2.17526 -1.4119,-2.83715 -0.76482,-0.66181 -1.75972,-1.0066 -2.98467,-1.03436 -0.61012,0.002 -2.41061,0.21876 -5.40148,0.6479 l -5.75746,0.82616 z m 32.10048,15.82588 -9.42413,-35.68963 7.20609,-1.90284 9.42413,35.68964 z m 21.85934,-6.58967 -10.81186,-28.69942 -10.2498,3.86137 -2.20144,-5.84356 27.45061,-10.3414 2.20144,5.84356 -10.22624,3.8525 10.81188,28.69944 z m 34.3091,-15.21457 -20.10759,-30.9556 22.95274,-14.90925 3.40156,5.2367 -16.7025,10.84931 4.45768,6.8626 15.54115,-10.09495 3.38784,5.21559 -15.54114,10.09493 5.47266,8.42517 17.29375,-11.23338 3.38783,5.21559 z m 19.0732,-26.82416 4.85726,-5.43052 c 1.96974,1.495 3.83206,2.21042 5.58698,2.14622 1.75491,-0.0642 3.46593,-0.86374 5.13306,-2.39871 1.7659,-1.62591 2.75257,-3.22459 2.96,-4.79606 0.20741,-1.57142 -0.14937,-2.85727 -1.07034,-3.85757 -0.59125,-0.64214 -1.28269,-1.01519 -2.07434,-1.11917 -0.79166,-0.10392 -1.81024,0.10945 -3.05576,0.64012 -0.84681,0.36899 -2.67401,1.32116 -5.48161,2.85654 -3.60991,1.97749 -6.49653,2.98098 -8.65987,3.01047 -3.0429,0.0408 -5.55354,-1.01327 -7.53194,-3.16203 -1.27344,-1.38307 -2.07235,-3.03763 -2.39679,-4.96368 -0.3244,-1.92602 -0.0387,-3.88329 0.85714,-5.87184 0.89586,-1.9885 2.38726,-3.94352 4.47426,-5.8651 3.40835,-3.13809 6.66175,-4.7531 9.76022,-4.84502 3.09847,-0.0918 5.83929,1.06967 8.2225,3.48455 l -5.26128,5.28911 c -1.51944,-1.17939 -2.94648,-1.71942 -4.28112,-1.62009 -1.33463,0.0994 -2.77377,0.85968 -4.31741,2.2809 -1.59301,1.46677 -2.53897,2.9424 -2.83785,4.42688 -0.19381,0.95429 0.0333,1.78337 0.6814,2.48723 0.59126,0.64219 1.3689,0.94158 2.33295,0.89819 1.22594,-0.0563 3.46254,-0.99751 6.70982,-2.82367 3.24727,-1.82611 5.81979,-2.99105 7.71761,-3.49487 1.89778,-0.50373 3.74511,-0.50471 5.54202,-0.002 1.79688,0.50188 3.48554,1.61105 5.06599,3.32754 1.4326,1.55601 2.34205,3.41115 2.72835,5.56542 0.38625,2.15433 0.0932,4.2895 -0.87917,6.40553 -0.9724,2.11605 -2.63792,4.25991 -4.99658,6.43157 -3.43305,3.16089 -6.8001,4.79497 -10.10117,4.90224 -3.30106,0.10729 -6.52916,-1.19313 -9.68433,-3.90129 l 0,0 z m 4.83097,-38.06002 4.42419,-5.99791 16.08901,11.86761 c 2.55316,1.88329 4.26279,3.02964 5.12889,3.43902 1.40512,0.64015 2.83203,0.7488 4.28071,0.32598 1.44868,-0.42281 2.79081,-1.47178 4.0264,-3.14687 1.25553,-1.7021 1.85428,-3.24202 1.7963,-4.61976 -0.058,-1.37773 -0.52879,-2.52807 -1.4124,-3.45103 -0.88362,-0.92292 -2.50071,-2.25129 -4.85124,-3.98513 l -16.43348,-12.1217 4.42421,-5.99792 15.60268,11.5089 c 3.56632,2.63064 5.96614,4.6511 7.19947,6.0614 1.23329,1.41036 2.03518,2.92485 2.40566,4.54347 0.37043,1.61868 0.31815,3.37918 -0.15685,5.28153 -0.47502,1.9024 -1.57942,4.02883 -3.31322,6.37935 -2.09254,2.83686 -4.00695,4.7465 -5.74326,5.72893 -1.73633,0.98243 -3.44184,1.51307 -5.11652,1.59187 -1.67469,0.0788 -3.1858,-0.17017 -4.53334,-0.74697 -1.99108,-0.86375 -4.6482,-2.52126 -7.97138,-4.97252 z"
     inkscape:connector-curvature="0"
     sodipodi:nodetypes="ssssssssssscssssssssssssssscsssssssssssscssssscsssccsssssssssssssssscssssssssssssssssssssssscssssssssssssssssssssssssssscsssssssscccscccsssssssssssssssscssssssssssscccscccsssssssscsssssssssssssssssssssssssssssscssssssssssscssscsscscsssssssscsssssccsssssscssssssssssssssscssssscsssssssscssssssssssssssssssssssssssssssssscsscsssssssssssssscsssssssssssssssscccccccccccccsccccccccccccsccccscscccsccccccccccccccccccccccccccccccscscccccssccccccccsccccccsssccccccccccscscccccccccccscccccccccccccscccccccccccccscccccccccccccccccccccccccccccccccccccssscccccscccccccccccsccccssscccccscssccsccsccsssscsc" />
  <path
     style="fill:none;stroke:none"
     d="M 92.111488,543.24748 C 167.48123,655.44068 315.21169,625.1992 363.24544,539.02202"
     id="path2248"
     sodipodi:nodetypes="cc"
     inkscape:connector-curvature="0" />
</svg>
