<?xml version="1.0" encoding="UTF-8" standalone="no"?>
<!-- Created with Inkscape (http://www.inkscape.org/) -->
<svg
   xmlns:dc="http://purl.org/dc/elements/1.1/"
   xmlns:cc="http://web.resource.org/cc/"
   xmlns:rdf="http://www.w3.org/1999/02/22-rdf-syntax-ns#"
   xmlns:svg="http://www.w3.org/2000/svg"
   xmlns="http://www.w3.org/2000/svg"
   xmlns:xlink="http://www.w3.org/1999/xlink"
   xmlns:sodipodi="http://sodipodi.sourceforge.net/DTD/sodipodi-0.dtd"
   xmlns:inkscape="http://www.inkscape.org/namespaces/inkscape"
   id="svg2211"
   sodipodi:version="0.32"
   inkscape:version="0.45.1"
   width="335.22018"
   height="414.09549"
   version="1.0"
   sodipodi:docbase="D:\My Documents\Personal\www\freespiritesu.org.uk\images"
   sodipodi:docname="fslogo.svg"
   inkscape:output_extension="org.inkscape.output.svg.inkscape"
   inkscape:export-filename="D:\My Documents\Personal\www\freespiritesu.org.uk\images\fslogo.gif"
   inkscape:export-xdpi="39.198116"
   inkscape:export-ydpi="39.198116">
  <metadata
     id="metadata2216">
    <rdf:RDF>
      <cc:Work
         rdf:about="">
        <dc:format>image/svg+xml</dc:format>
        <dc:type
           rdf:resource="http://purl.org/dc/dcmitype/StillImage" />
      </cc:Work>
    </rdf:RDF>
  </metadata>
  <defs
     id="defs2214">
    <linearGradient
       id="linearGradient3149">
      <stop
         style="stop-color:#000000;stop-opacity:0;"
         offset="0"
         id="stop3151" />
      <stop
         style="stop-color:#000000;stop-opacity:1;"
         offset="1"
         id="stop3153" />
    </linearGradient>
    <linearGradient
       inkscape:collect="always"
       xlink:href="#linearGradient3149"
       id="linearGradient3155"
       x1="-1.9919029"
       y1="265.08096"
       x2="436.22672"
       y2="265.08096"
       gradientUnits="userSpaceOnUse" />
  </defs>
  <sodipodi:namedview
     inkscape:window-height="573"
     inkscape:window-width="739"
     inkscape:pageshadow="2"
     inkscape:pageopacity="0.0"
     guidetolerance="10.0"
     gridtolerance="10.0"
     objecttolerance="10.0"
     borderopacity="1.0"
     bordercolor="#666666"
     pagecolor="#ffffff"
     id="base"
     inkscape:zoom="0.5020325"
     inkscape:cx="275.31262"
     inkscape:cy="178.55657"
     inkscape:window-x="26"
     inkscape:window-y="29"
     inkscape:current-layer="svg2211" />
  <path
     id="path2220"
     style="fill:#ff0000"
     d="M 230.34742,311.34942 C 229.30647,310.30847 230.29818,308.2345 236.0334,299.45833 C 244.33951,286.74814 247.05633,282.08776 247.05633,280.54985 C 247.05633,279.5342 247.72363,278.14941 248.53921,277.47254 C 249.3548,276.79566 250.45228,274.82806 250.97807,273.10009 C 251.50385,271.37212 252.66543,267.95557 253.55936,265.50776 C 254.45329,263.05994 254.98624,260.29831 254.74369,259.37081 C 254.20247,257.30116 265.82375,243.1268 268.48148,242.61497 C 269.98613,242.3252 270.23561,242.74015 269.83059,244.85889 C 269.27195,247.78123 269.40929,247.87499 272.12207,246.42315 C 276.25484,244.21135 274.08801,251.11674 267.73671,260.39867 C 265.79415,263.23756 265.12355,264.98074 265.87734,265.232 C 266.52578,265.44815 267.05633,266.2625 267.05633,267.04166 C 267.05633,267.82083 267.30368,268.45833 267.60599,268.45833 C 269.25189,268.45833 274.03601,265.08219 277.43581,261.52145 C 279.56952,259.28674 282.21212,257.45833 283.30826,257.45833 C 285.56996,257.45833 285.09735,258.2895 279.55633,264.0568 C 277.90633,265.77418 276.04902,267.80459 275.42897,268.56882 C 271.84711,272.98359 262.98774,276.73289 256.25908,276.68155 C 254.5053,276.66817 253.42938,277.76774 251.71117,281.32942 C 250.4733,283.89539 247.4013,288.94091 244.88449,292.54168 C 242.36768,296.14244 239.96219,300.18423 239.53894,301.52343 C 239.1157,302.86262 237.93397,304.54635 236.91287,305.26503 C 235.89177,305.98372 235.05633,307.22122 235.05633,308.01503 C 235.05633,308.80885 234.60633,309.45833 234.05633,309.45833 C 233.50633,309.45833 233.05633,310.13333 233.05633,310.95833 C 233.05633,312.73098 231.89644,312.89844 230.34742,311.34942 z M 212.70702,307.78098 C 213.23353,306.29009 213.10547,306.18586 212.00351,307.20833 C 211.26256,307.89583 210.07133,308.45833 209.35633,308.45833 C 207.04541,308.45833 207.97094,304.79582 211.5399,299.81752 C 213.45587,297.14497 215.63768,293.60833 216.38837,291.95833 C 217.13905,290.30833 218.94645,287.54337 220.40479,285.81397 C 221.86314,284.08458 223.05633,281.4755 223.05633,280.01601 C 223.05633,278.44579 225.44037,273.79245 228.89576,268.61822 C 232.10744,263.80891 235.05023,258.61879 235.43528,257.08461 C 236.02583,254.73166 240.8731,246.62316 243.91764,242.89534 C 244.39512,242.3107 245.31249,240.8482 245.95624,239.64534 C 247.62364,236.52979 249.31813,236.9321 251.4864,240.95833 C 253.328,244.37797 253.32841,244.53792 251.50423,247.92521 C 250.47736,249.832 248.494,252.24394 247.09676,253.28508 C 245.69952,254.32623 243.09665,257.22326 241.31261,259.72294 C 238.53497,263.61476 238.35536,264.19289 240.06261,263.74644 C 244.4586,262.59686 240.898,272.78965 236.26865,274.60724 C 234.84545,275.16602 228.24942,284.2261 226.70151,287.74833 C 225.92563,289.51383 224.70199,292.53333 223.9823,294.45833 C 223.26261,296.38333 222.08485,298.31819 221.36505,298.75802 C 220.64526,299.19785 220.05633,300.41299 220.05633,301.45833 C 220.05633,302.50367 219.49383,303.71881 218.80633,304.15864 C 218.11883,304.59847 217.0581,305.85833 216.44915,306.95833 C 214.97499,309.62123 211.81153,310.31666 212.70702,307.78098 z M 216.05633,302.33589 C 216.05633,300.59496 214.27725,301.50553 213.75164,303.51548 C 213.31022,305.20345 213.46875,305.36094 214.635,304.39304 C 215.41673,303.74426 216.05633,302.81854 216.05633,302.33589 z M 71.573848,286.76216 C 72.423248,284.72926 74.274728,281.54971 75.688258,279.69648 C 77.101778,277.84325 77.998448,276.06712 77.680858,275.74952 C 77.363258,275.43193 76.819668,275.91148 76.472878,276.8152 C 76.126088,277.71892 75.032628,278.45833 74.042958,278.45833 C 72.683928,278.45833 72.375438,277.90769 72.782408,276.20833 C 73.316418,273.97851 81.782828,260.52452 83.394308,259.34494 C 83.855198,259.00758 84.390878,255.85758 84.584718,252.34494 C 85.559048,234.6884 85.958878,232.45833 88.150168,232.45833 C 89.699738,232.45833 90.056328,233.1891 90.056328,236.36471 C 90.056328,239.77876 90.308388,240.20517 92.056328,239.74808 C 93.734298,239.30928 94.056328,239.7174 94.056328,242.28268 C 94.056328,243.96437 93.681358,245.57204 93.223058,245.85528 C 92.764758,246.13853 92.578078,247.65318 92.808218,249.22118 C 93.072658,251.02297 92.643308,252.55622 91.641488,253.38766 C 90.769648,254.11122 90.056328,255.32312 90.056328,256.08077 C 90.056328,256.83843 89.674668,257.45833 89.208198,257.45833 C 87.597748,257.45833 84.632608,265.43461 85.806628,266.60863 C 86.585238,267.38724 86.350538,268.6541 84.973458,271.10588 C 83.919038,272.98318 83.056328,274.93229 83.056328,275.43722 C 83.056328,275.94216 81.931328,277.56918 80.556328,279.05283 C 79.181328,280.53648 78.056328,282.16469 78.056328,282.67107 C 78.056328,284.34161 72.846948,290.45833 71.424218,290.45833 C 70.258228,290.45833 70.282768,289.85214 71.573848,286.76216 z M 95.056328,288.40645 C 95.056328,287.27791 95.937918,284.69041 97.015408,282.65645 C 98.092908,280.62248 100.55976,275.47083 102.4973,271.20833 C 105.81987,263.89884 108.05633,261.43466 108.05633,265.08328 C 108.05633,265.97701 106.88362,269.32138 105.45031,272.51522 C 104.017,275.70907 103.02889,278.87601 103.25451,279.55288 C 103.91878,281.54568 113.05633,266.41319 113.05633,263.32033 C 113.05633,261.78908 113.85736,259.73121 114.83639,258.74729 C 118.17705,255.38992 119.09109,253.71248 118.46659,252.08508 C 118.12326,251.19037 117.2155,250.45833 116.44934,250.45833 C 113.82475,250.45833 115.05808,246.69671 119.60666,240.82865 C 124.83684,234.08128 126.5736,232.9721 125.83171,236.85304 C 125.53871,238.38574 125.84,239.81525 126.5442,240.23355 C 129.01453,241.70093 130.19943,245.31361 128.99582,247.70833 C 128.17657,249.33833 128.57479,249.13167 130.44099,246.95833 C 134.86385,241.80758 135.05633,241.55735 135.05633,240.95833 C 135.05633,240.6369 135.50314,239.83041 136.04923,239.16612 C 136.59533,238.50184 138.60027,235.93333 140.50465,233.45833 C 142.40904,230.98333 144.55581,228.27725 145.27526,227.44482 C 145.99471,226.61239 147.62041,224.47489 148.88793,222.69482 C 150.15546,220.91475 151.55939,219.45833 152.00779,219.45833 C 153.68911,219.45833 153.87709,223.80226 152.29994,226.20929 C 151.40029,227.58233 150.76365,230.1822 150.88519,231.98679 C 151.12723,235.58088 145.95901,247.10946 139.91468,256.45833 C 137.95892,259.48333 135.23015,263.98333 133.85076,266.45833 C 129.08261,275.01361 125.56799,280.45833 124.81361,280.45833 C 123.45482,280.45833 124.01778,275.63974 125.55633,274.10119 C 126.38133,273.27619 127.05633,272.12697 127.05633,271.54737 C 127.05633,270.96777 128.85633,267.5527 131.05633,263.95833 C 133.25633,260.36396 135.05633,257.15849 135.05633,256.83507 C 135.05633,256.51166 136.18133,254.91006 137.55633,253.27596 C 138.93133,251.64187 140.05633,249.27681 140.05633,248.02028 C 140.05633,244.02339 135.94456,245.96019 132.59965,251.53264 C 130.97348,254.24177 129.14926,256.45833 128.54582,256.45833 C 127.10043,256.45833 121.05633,262.723 121.05633,264.22114 C 121.05633,264.86332 119.77156,266.8669 118.20128,268.67353 C 116.631,270.48017 112.55688,275.89875 109.14768,280.71483 C 103.82171,288.23867 102.68992,289.3326 101.10774,288.48584 C 99.764438,287.76693 98.934318,287.90042 98.038888,288.97934 C 96.313028,291.05888 95.056328,290.81749 95.056328,288.40645 z M 35.060648,275.53993 C 35.058273,274.75981 37.23592,271.13425 39.89987,267.48312 C 43.60041,262.41127 44.56453,260.36116 43.98538,258.79558 C 43.47918,257.42719 43.86118,255.785 45.13525,253.85238 C 46.1846,252.26065 47.04612,249.36083 47.04974,247.40833 C 47.05336,245.45583 47.59633,243.31833 48.25633,242.65833 C 49.18966,241.725 49.09744,241.45833 47.84132,241.45833 C 45.92629,241.45833 38.59153,249.52823 36.499448,253.93695 C 35.690638,255.64139 33.652298,258.70598 31.969803,260.74713 C 28.294094,265.20641 24.922519,265.65482 23.216844,261.91128 C 22.360179,260.0311 22.056329,232.42338 22.056329,156.46704 L 22.056329,53.569857 L 24.470437,50.764087 L 26.884546,47.958327 L 108.32943,47.812167 C 153.12412,47.731777 190.27796,47.977267 190.89352,48.357707 C 191.60862,48.799667 190.45324,50.748017 187.69357,53.753867 L 183.37441,58.458327 L 107.82378,58.458327 L 32.273145,58.458327 L 31.643366,60.967567 C 30.667987,64.853787 31.031435,252.45833 32.014342,252.45833 C 32.490807,252.45833 34.778999,249.64583 37.09921,246.20833 C 43.22525,237.13233 45.63881,235.29689 50.66317,235.89331 C 54.70405,236.373 54.856,236.27482 60.12577,229.77972 C 63.071448,226.14911 66.925368,222.57534 68.690028,221.83802 C 70.454698,221.10069 73.171518,218.69824 74.727418,216.49923 C 78.228248,211.55138 80.381968,211.44707 85.416748,215.98153 C 87.539978,217.89377 90.285168,219.45833 91.517178,219.45833 C 92.839218,219.45833 94.720128,220.71481 96.106928,222.52435 C 99.018128,226.32301 110.52049,235.45833 112.39221,235.45833 C 113.15055,235.45833 116.31399,232.70659 119.42206,229.34336 C 124.42502,223.92968 125.38753,223.30586 127.81472,223.90395 C 135.74102,225.85711 135.10428,226.13424 142.55633,217.48772 C 146.40633,213.02061 150.97343,208.4779 152.70543,207.39281 C 154.50495,206.26543 156.53189,203.72704 157.43507,201.46979 C 158.30436,199.29722 160.55197,195.36836 162.42975,192.73899 C 164.30753,190.10963 167.33702,185.09513 169.16195,181.59565 C 170.98689,178.09618 173.06428,175.00877 173.77838,174.73475 C 175.49332,174.07666 179.72555,177.43421 190.16962,187.73841 C 199.84027,197.27953 203.21501,198.65782 210.54991,196.06201 C 212.8763,195.23871 215.17238,194.99159 216.04991,195.47006 C 218.79314,196.9658 227.73094,206.89941 229.53567,210.45833 C 230.51184,212.38333 232.04083,214.66217 232.93343,215.52242 C 233.82602,216.38266 236.30212,219.18018 238.43587,221.73912 C 241.54983,225.4736 243.42454,226.71335 247.93587,228.02152 C 251.72864,229.12132 254.39061,230.64763 256.12189,232.71517 C 257.53294,234.4003 259.72173,235.93688 260.98586,236.1298 C 263.36969,236.4936 270.05633,232.98972 270.05633,231.37677 C 270.05633,228.47314 274.63159,231.86044 285.89166,243.10045 C 296.58522,253.77497 303.42806,259.45833 305.58675,259.45833 C 305.84502,259.45833 306.05633,214.24056 306.05633,158.9744 L 306.05633,58.490467 L 278.80633,58.224397 C 260.86286,58.049197 251.55633,57.604837 251.55633,56.923297 C 251.55633,56.354027 252.96227,54.182627 254.68063,52.097947 L 257.80493,48.307627 L 273.93066,47.764057 C 282.79981,47.465097 294.39889,47.546067 299.70639,47.943987 C 307.95027,48.562047 309.6988,49.009887 311.70636,51.017447 L 314.05633,53.367417 L 314.05633,156.36582 C 314.05633,232.39897 313.7525,260.03105 312.89581,261.91128 C 312.12097,263.61187 310.93688,264.45833 309.33281,264.45833 C 305.29293,264.45833 293.96536,258.33882 288.61777,253.26741 C 274.33535,239.72264 271.79958,237.45833 270.91338,237.45833 C 270.38364,237.45833 268.29464,238.58333 266.27114,239.95833 C 261.04211,243.51155 258.70708,243.19479 255.37118,238.47968 C 252.77624,234.81187 252.18856,234.49936 247.84896,234.47968 C 242.57909,234.45578 242.62044,234.41739 233.00058,248.26497 C 228.31401,255.01119 225.70833,257.44366 224.48198,256.21731 C 223.85297,255.5883 227.31635,249.473 228.30633,249.46465 C 228.71883,249.46118 229.05633,248.98912 229.05633,248.41563 C 229.05633,247.84215 230.78697,245.02965 232.90219,242.16563 C 235.01741,239.30162 237.50855,235.48697 238.43806,233.68863 C 240.09449,230.48388 240.07533,230.3498 237.47351,226.93863 C 236.0135,225.02447 234.4791,223.45833 234.06372,223.45833 C 233.64834,223.45833 231.0051,219.94986 228.18986,215.66172 C 221.94721,206.153 217.4922,201.6955 213.41685,200.88043 C 210.51873,200.30081 210.11248,200.61501 206.69433,206.07964 C 204.52318,209.55068 203.05633,213.15828 203.05633,215.027 C 203.05633,216.9192 201.86921,219.79703 200.05633,222.29963 C 198.40633,224.57739 197.05633,227.51774 197.05633,228.83375 C 197.05633,230.47372 195.4522,232.6 191.95737,235.5924 C 185.16015,241.41244 184.1914,242.34299 179.77379,247.29555 C 175.71404,251.8469 173.64694,251.99017 174.7024,247.64704 C 175.35461,244.96323 175.35188,244.9618 173.20607,246.86332 C 172.02371,247.91106 171.05633,249.16678 171.05633,249.65381 C 171.05633,250.9225 166.83558,256.45833 165.86827,256.45833 C 164.11747,256.45833 165.59961,248.29965 168.32074,242.95833 C 169.30103,241.03411 169.26498,241.02464 167.36924,242.70833 C 164.86353,244.93378 163.29874,244.93378 162.85051,242.70833 C 162.42508,240.5961 153.47186,253.42056 150.22195,260.79729 C 147.93267,265.99356 145.76829,266.58983 145.24354,262.16881 C 144.89904,259.26644 148.46438,253.52956 159.17585,239.75072 C 162.68511,235.23653 167.76646,228.52713 170.46773,224.84093 C 175.35764,218.16809 175.38672,218.14812 177.11186,220.27858 C 178.61671,222.13699 179.00612,222.22376 180.0729,220.93836 C 181.74054,218.92898 185.05633,219.04407 185.05633,221.11134 C 185.05633,222.41124 185.50615,222.25103 187.16209,220.36134 C 190.42037,216.64313 195.05633,209.71391 195.05633,208.56208 C 195.05633,207.99234 195.8197,205.92538 196.7527,203.96885 L 198.44908,200.41152 L 190.86248,193.18492 C 183.06174,185.75436 182.30061,185.09849 178.08382,182.17343 C 174.87062,179.94453 174.33364,180.00693 173.48065,182.70833 C 173.0899,183.94583 170.56461,188.23009 167.8689,192.2289 C 165.1732,196.22772 162.05727,201.62772 160.94463,204.2289 C 158.99099,208.79617 155.47533,213.45833 153.98484,213.45833 C 152.51872,213.45833 146.7651,219.14029 141.8335,225.45833 C 132.30113,237.67058 128.28074,240.19615 129.28702,233.33991 C 129.66433,230.76912 129.41757,230.45833 126.99913,230.45833 C 125.0579,230.45833 123.33271,231.60099 120.92232,234.48323 C 115.23083,241.28885 100.76884,256.82536 97.791398,259.33276 C 94.890988,261.7753 92.942438,261.77115 95.258708,259.32738 C 95.972398,258.5744 97.855028,256.04583 99.442328,253.70833 C 101.02963,251.37083 102.6372,249.45833 103.0147,249.45833 C 103.89005,249.45833 109.05633,241.60886 109.05633,240.27888 C 109.05633,239.18354 105.03394,235.54493 103.76412,235.4916 C 102.71925,235.44772 100.58511,233.73434 96.176058,229.39959 C 94.185208,227.44229 89.661728,224.10153 86.123878,221.9757 L 79.691428,218.11055 L 75.876578,222.53444 C 73.778418,224.96758 72.060518,227.26283 72.059028,227.63501 C 72.057548,228.00718 71.268828,228.54049 70.306328,228.82015 C 68.920568,229.22279 68.972608,229.29528 70.556328,229.16843 C 75.808868,228.74774 76.436638,233.54328 72.034248,240.45833 C 70.458568,242.93333 67.800798,247.20833 66.128088,249.95833 C 64.455378,252.70833 61.03274,257.20833 58.52223,259.95833 C 52.44972,266.61014 53.3298,263.40033 61.35754,249.61752 C 65.174078,243.06492 66.984588,239.03203 66.299768,238.60878 C 65.705368,238.24142 65.069928,236.39795 64.887678,234.51218 L 64.556328,231.08351 L 61.62811,234.93786 C 59.33896,237.95101 58.74662,239.69505 58.91403,242.92904 C 59.10781,246.6726 58.74184,247.37633 55.06438,250.33162 C 52.82929,252.12778 51.11805,254.12859 51.26161,254.77785 C 51.40518,255.42711 49.86753,258.43333 47.8446,261.45833 C 43.13689,268.49806 35.066275,277.38789 35.060648,275.53993 z M 209.17089,254.67239 C 208.59658,253.59929 208.41086,252.43713 208.75818,252.08981 C 209.1055,251.7425 208.86466,251.45833 208.223,251.45833 C 207.58133,251.45833 207.05633,252.13333 207.05633,252.95833 C 207.05633,253.78333 206.38133,254.45833 205.55633,254.45833 C 204.73133,254.45833 204.05633,253.95123 204.05633,253.33144 C 204.05633,251.84702 212.18801,237.0549 213.24037,236.625 C 213.68915,236.44166 214.05633,235.65416 214.05633,234.875 C 214.05633,234.09583 214.41593,233.45833 214.85544,233.45833 C 215.29495,233.45833 216.20856,231.92625 216.88568,230.05372 C 218.48986,225.61742 221.4997,224.19332 220.81315,228.19543 C 220.55247,229.71503 220.01638,231.85833 219.62184,232.95833 C 219.2273,234.05833 220.69048,232.98539 222.87335,230.57403 C 226.66804,226.38212 226.89079,226.2805 227.94927,228.25828 C 228.55815,229.39599 229.05633,231.72226 229.05633,233.42777 C 229.05633,238.99047 223.84099,244.22559 222.7995,239.70833 C 222.47545,238.30279 222.13417,238.49963 221.06566,240.70833 C 220.33396,242.22083 219.35753,243.45833 218.89581,243.45833 C 218.4341,243.45833 218.05633,244.14745 218.05633,244.98971 C 218.05633,245.83198 217.38133,246.78012 216.55633,247.0967 C 215.73133,247.41329 215.05633,248.31329 215.05633,249.0967 C 215.05633,249.88012 214.38391,250.77913 213.56207,251.0945 C 212.74023,251.40987 212.25033,251.96321 212.4734,252.32414 C 212.69647,252.68508 212.2796,253.80008 211.54703,254.80193 C 210.26545,256.5546 210.1756,256.5497 209.17089,254.67239 z M 219.05633,236.3403 C 219.05633,235.7903 218.60633,235.61841 218.05633,235.95833 C 217.50633,236.29825 217.05633,237.02636 217.05633,237.57636 C 217.05633,238.12636 217.50633,238.29825 218.05633,237.95833 C 218.60633,237.61841 219.05633,236.8903 219.05633,236.3403 z M 227.55633,188.8472 C 222.2945,187.52898 218.77376,185.38657 209.13528,177.63775 C 201.07561,171.1582 197.49589,168.94244 193.33754,167.85933 C 190.38036,167.08908 186.09781,165.55875 183.82076,164.4586 C 178.97569,162.11772 171.91968,161.85305 168.77115,163.89409 C 165.68993,165.89149 150.46258,168.33552 147.05633,167.37938 C 146.01195,167.08622 145.45428,167.85517 145.22036,169.91095 C 144.82094,173.42113 142.56065,175.38285 138.86535,175.42653 C 137.38531,175.44402 135.89625,175.90833 135.55633,176.45833 C 135.21641,177.00833 133.66995,177.45833 132.11976,177.45833 C 130.56956,177.45833 128.74102,178.13333 128.05633,178.95833 C 126.59773,180.71583 123.91108,180.91308 122.37355,179.37555 C 121.59652,178.59852 120.56169,179.07906 118.70873,181.0774 C 117.28861,182.60894 115.84029,183.57562 115.49025,183.22558 C 115.14021,182.87554 114.55146,180.19721 114.18192,177.27374 C 113.48314,171.74551 113.19072,171.53335 108.30633,173.01094 C 106.22714,173.63992 106.05633,173.37907 106.05633,169.57496 C 106.05633,166.65733 105.63663,165.45833 104.61535,165.45833 C 103.82281,165.45833 102.89625,165.90833 102.55633,166.45833 C 101.40393,168.32295 99.097458,167.47039 98.463768,164.94556 C 98.116898,163.56353 97.144728,162.04755 96.303388,161.57672 C 93.522178,160.02027 95.796998,155.91983 103.79714,148.06902 C 112.71012,139.3224 116.37934,137.2648 123.38246,137.08612 C 126.3341,137.01082 128.55797,136.45723 128.79716,135.73825 C 129.34916,134.07898 123.41454,130.57452 118.75907,129.81066 C 113.30394,128.91558 114.30336,126.77638 122.05633,122.75308 C 128.506,119.40611 128.64925,119.38207 140.55633,119.64919 C 147.15633,119.79725 153.13706,119.55204 153.84685,119.1043 C 157.50573,116.7962 163.11375,103.37538 164.49333,93.625687 C 165.49391,86.554447 169.73406,79.659587 178.40212,71.008757 C 187.22678,62.201647 198.03668,50.256157 204.29649,42.394167 C 206.46849,39.666257 209.05618,37.458327 210.08131,37.458327 C 211.25458,37.458327 214.57669,33.960587 219.12212,27.939543 C 225.88444,18.981941 228.05633,16.548109 228.05633,17.927823 C 228.05633,18.955639 221.88005,30.849203 219.86158,33.708327 C 218.79379,35.220827 218.21731,36.458327 218.58051,36.458327 C 220.25554,36.458327 226.99067,29.658853 238.30633,16.544066 C 240.36883,14.15364 242.05633,12.755956 242.05633,13.438102 C 242.05633,16.655323 234.96419,27.370612 228.37006,34.116247 C 224.34751,38.231217 221.05633,42.028147 221.05633,42.553847 C 221.05633,45.353937 232.3003,37.144577 244.30291,25.581226 C 248.56353,21.476535 252.32065,18.38931 252.65207,18.720726 C 253.54788,19.616543 248.44313,28.445534 244.70925,32.458323 C 242.91805,34.383327 239.67588,37.284537 237.50443,38.905467 C 233.45689,41.926827 232.09853,43.381077 232.07164,44.721747 C 232.04513,46.043667 239.16605,42.585047 249.32755,36.340577 C 254.71921,33.027283 259.61511,30.477913 260.20732,30.675323 C 261.9395,31.252713 256.07795,37.469337 250.34117,41.139107 C 243.79928,45.323907 243.24796,47.771137 249.05633,46.842337 C 254.96845,45.896947 254.62427,47.428297 247.76869,52.571397 C 245.60677,54.193287 245.23251,54.965677 246.10131,56.012527 C 247.6342,57.859537 246.40494,61.183807 243.48049,63.099977 C 240.53614,65.029187 240.35526,67.101037 243.05633,67.958327 C 244.15633,68.307457 245.05633,69.006397 245.05633,69.511527 C 245.05633,70.741967 238.35523,75.112097 234.30633,76.522147 C 232.51883,77.144657 231.05633,78.247427 231.05633,78.972747 C 231.05633,79.698067 229.81883,81.206827 228.30633,82.325547 C 225.56844,84.350627 225.56403,84.373367 227.30633,87.489997 C 229.50617,91.425087 229.47671,92.364047 227.05633,95.458327 C 225.98079,96.833327 225.0908,99.335977 225.07857,101.01977 C 225.06634,102.70356 224.15633,105.04724 223.05633,106.22796 C 221.95633,107.40867 221.05633,109.74792 221.05633,111.4263 C 221.05633,113.24042 220.24529,115.17234 219.05633,116.19036 C 217.95633,117.13221 217.05633,118.67014 217.05633,119.60799 C 217.05633,120.54584 215.93133,122.19809 214.55633,123.27967 C 213.18133,124.36125 212.05633,125.94509 212.05633,126.79934 C 212.05633,128.60454 207.67959,137.11215 205.52756,139.49012 C 203.26556,141.9896 203.77221,144.39817 206.80633,145.56923 C 208.31883,146.15301 216.79781,147.21859 225.64852,147.93719 C 236.026,148.77976 242.81953,149.80164 244.77862,150.81472 C 247.80571,152.38009 252.05633,159.02067 252.05633,162.1844 C 252.05633,163.09987 253.23691,165.08115 254.67984,166.58725 C 257.09216,169.10517 257.24752,169.7725 256.60977,174.87693 C 256.01205,179.66094 255.40753,180.84783 252.23625,183.46384 C 250.2123,185.13342 246.98133,186.95183 245.05633,187.50476 C 240.79317,188.72927 230.29898,189.53429 227.55633,188.8472 z M 34.315133,321.07216 L 56.46015,304.07343 L 68.113438,319.2547 L 64.367218,322.13034 L 56.14614,311.42037 L 50.90445,315.44394 L 58.00078,324.68866 L 54.25456,327.56429 L 47.15823,318.31958 L 37.74734,325.54346 L 34.315133,321.07216 z M 49.01077,339.86373 L 68.392198,319.77099 L 76.930928,328.00743 C 79.078148,330.07867 80.464248,331.76408 81.089258,333.06366 C 81.714198,334.36324 81.873978,335.7565 81.568608,337.24344 C 81.263168,338.73038 80.537568,340.06777 79.391818,341.25561 C 77.937518,342.76324 76.293488,343.58072 74.459728,343.70805 C 72.625918,343.83536 70.703888,343.17641 68.693638,341.73121 C 69.077228,343.089 69.259298,344.34943 69.239878,345.51249 C 69.220418,346.67554 68.941388,348.50542 68.402808,351.00215 L 67.075048,357.28851 L 62.22319,352.60841 L 63.507518,345.40704 C 63.973008,342.8398 64.209988,341.1678 64.218448,340.39102 C 64.226878,339.61423 64.089098,338.94333 63.805088,338.37833 C 63.521048,337.81331 62.91304,337.08131 61.98106,336.18231 L 61.15871,335.38907 L 53.06769,343.77704 L 49.01077,339.86373 z M 64.252338,332.1819 L 67.253918,335.07722 C 69.200118,336.95455 70.494698,338.04454 71.137638,338.3472 C 71.780528,338.64986 72.432948,338.73238 73.094898,338.59475 C 73.756798,338.45713 74.378608,338.08679 74.960348,337.48373 C 75.612528,336.80758 75.958688,336.08756 75.998828,335.32367 C 76.038908,334.55978 75.782898,333.80572 75.230808,333.06148 C 74.945918,332.69851 73.981128,331.72378 72.336458,330.1373 L 69.170408,327.08334 L 64.252338,332.1819 z M 69.665318,359.0474 L 85.387628,335.97864 L 102.4925,347.63632 L 99.832788,351.53881 L 87.385728,343.05562 L 83.900228,348.16977 L 95.481808,356.0631 L 92.832828,359.94986 L 81.251238,352.05653 L 76.972108,358.33513 L 89.859768,367.11861 L 87.210788,371.00536 L 69.665318,359.0474 z M 91.477138,373.34047 L 103.06016,347.93984 L 121.89405,356.52834 L 119.93458,360.82531 L 106.22933,354.57553 L 103.66147,360.20664 L 116.41376,366.02186 L 114.46219,370.3015 L 101.70989,364.48628 L 98.557348,371.39955 L 112.74774,377.87056 L 110.79617,382.1502 L 91.477138,373.34047 z M 116.32874,374.55807 L 121.76886,375.43428 C 121.62092,377.2986 121.92551,378.77635 122.68264,379.86751 C 123.43976,380.95869 124.64719,381.72177 126.30495,382.15675 C 128.06092,382.61752 129.48152,382.59324 130.56675,382.08393 C 131.65194,381.57462 132.32504,380.82264 132.58605,379.82798 C 132.75358,379.18945 132.70889,378.59694 132.45199,378.05045 C 132.19505,377.50398 131.64346,376.94252 130.79723,376.36609 C 130.21667,375.97751 128.86465,375.20274 126.74115,374.04178 C 124.0087,372.55043 122.19161,371.12207 121.28988,369.75668 C 120.022,367.83588 119.66839,365.80715 120.22904,363.67048 C 120.58991,362.29518 121.3173,361.11119 122.41123,360.11851 C 123.50513,359.12588 124.86795,358.50894 126.49971,358.2677 C 128.13143,358.02651 129.98493,358.17817 132.0602,358.72268 C 135.44935,359.61201 137.8055,361.02432 139.12866,362.95962 C 140.45176,364.89496 140.83087,367.11413 140.26598,369.61715 L 134.751,368.42598 C 134.88177,366.97718 134.64317,365.84816 134.03521,365.03892 C 133.42721,364.22972 132.35575,363.62373 130.82081,363.22094 C 129.23673,362.80531 127.9111,362.80528 126.84393,363.22087 C 126.15723,363.48696 125.72205,363.96996 125.5384,364.66988 C 125.37084,365.30843 125.49761,365.92576 125.9187,366.52186 C 126.45491,367.27946 127.96705,368.31937 130.45513,369.64159 C 132.94318,370.96384 134.73488,372.12632 135.83024,373.12904 C 136.92555,374.13178 137.68015,375.3076 138.09404,376.65651 C 138.50788,378.00543 138.49088,379.53332 138.04303,381.24019 C 137.63702,382.78742 136.82702,384.12364 135.61304,385.24885 C 134.39901,386.37405 132.91992,387.05892 131.17577,387.30345 C 129.43158,387.54798 127.38679,387.36253 125.0414,386.74711 C 121.62766,385.85136 119.21298,384.37447 117.79737,382.31644 C 116.38175,380.25842 115.8922,377.6723 116.32874,374.55807 L 116.32874,374.55807 z M 140.74693,389.84379 L 143.24554,362.03884 L 152.25464,362.84841 C 155.6686,363.15523 157.88151,363.49429 158.89337,363.86562 C 160.44904,364.42607 161.7015,365.45318 162.65073,366.94694 C 163.59992,368.44074 163.97511,370.29401 163.77629,372.50676 C 163.62287,374.21376 163.18412,375.62106 162.46004,376.72865 C 161.73591,377.83627 160.8667,378.67909 159.85242,379.25712 C 158.8381,379.83517 157.82816,380.18736 156.8226,380.31367 C 155.45842,380.45877 153.50559,380.41712 150.96408,380.18873 L 147.30354,379.85978 L 146.36102,390.34828 L 140.74693,389.84379 z M 148.43695,367.24703 L 147.72793,375.13712 L 150.80051,375.41322 C 153.01326,375.61208 154.50571,375.59961 155.27788,375.37582 C 156.05001,375.15205 156.67572,374.7494 157.155,374.16788 C 157.63424,373.58639 157.9108,372.88469 157.98468,372.06279 C 158.07556,371.05126 157.85341,370.19003 157.31823,369.4791 C 156.78301,368.76821 156.0676,368.28966 155.17199,368.04346 C 154.51319,367.85681 153.17225,367.67258 151.14916,367.49076 L 148.43695,367.24703 z M 166.5669,391.41167 L 165.87015,363.50337 L 171.50511,363.36269 L 172.20186,391.27099 L 166.5669,391.41167 z M 177.60667,391.30188 L 173.64136,363.66794 L 185.38484,361.98281 C 188.33798,361.55908 190.51934,361.49937 191.92892,361.80368 C 193.33847,362.10804 194.53645,362.83712 195.52286,363.99091 C 196.50923,365.14475 197.11963,366.53849 197.35407,368.17212 C 197.65158,370.24563 197.2878,372.04529 196.26271,373.57109 C 195.23757,375.09693 193.53759,376.20978 191.16274,376.90966 C 192.4701,377.44029 193.5769,378.07023 194.48315,378.79947 C 195.38936,379.52875 196.66268,380.87225 198.30311,382.82998 L 202.45083,387.73688 L 195.77797,388.6944 L 190.88124,383.26012 C 189.14028,381.31681 187.96579,380.10342 187.35776,379.61993 C 186.74971,379.13646 186.1355,378.83343 185.51513,378.71082 C 184.89473,378.58823 183.94365,378.6189 182.66186,378.80282 L 181.53087,378.96511 L 183.18624,390.50124 L 177.60667,391.30188 z M 180.89793,374.55423 L 185.02606,373.96187 C 187.70273,373.5778 189.35786,373.22487 189.99145,372.90308 C 190.625,372.58133 191.09061,372.11693 191.38829,371.50988 C 191.68592,370.90288 191.77524,370.18467 191.65625,369.35525 C 191.52279,368.42535 191.16686,367.71011 190.58845,367.20953 C 190.01001,366.709 189.25758,366.44824 188.33116,366.42725 C 187.86973,366.42936 186.50803,366.59269 184.24606,366.91725 L 179.89173,367.54207 L 180.89793,374.55423 z M 205.1753,386.52323 L 198.0479,359.53141 L 203.49781,358.09231 L 210.62522,385.08413 L 205.1753,386.52323 z M 221.70737,381.53951 L 213.53043,359.83434 L 205.77858,362.75467 L 204.11365,358.33523 L 224.87435,350.51409 L 226.53928,354.93354 L 218.80525,357.84716 L 226.9822,379.55234 L 221.70737,381.53951 z M 247.6551,370.03284 L 232.44787,346.62133 L 249.80687,335.34557 L 252.37945,339.30605 L 239.74746,347.51131 L 243.11877,352.70145 L 254.87243,345.06671 L 257.43463,349.01122 L 245.68097,356.64595 L 249.81991,363.01784 L 262.89905,354.52212 L 265.46125,358.46663 L 247.6551,370.03284 z M 262.08003,349.74591 L 265.75354,345.63885 C 267.24324,346.76951 268.6517,347.31057 269.97893,347.26202 C 271.30616,347.21348 272.60019,346.60878 273.86103,345.44789 C 275.19657,344.21823 275.94278,343.00916 276.09966,341.82067 C 276.25652,340.63221 275.98669,339.65973 275.29017,338.90321 C 274.84301,338.41757 274.32008,338.13543 273.72136,338.05679 C 273.12263,337.97819 272.35228,338.13957 271.41031,338.54091 C 270.76987,338.81997 269.38797,339.5401 267.2646,340.70129 C 264.53445,342.19686 262.35132,342.95579 260.7152,342.97809 C 258.41388,343.0089 256.5151,342.21176 255.01885,340.58667 C 254.05576,339.54067 253.45154,338.28933 253.20617,336.83267 C 252.96084,335.37604 253.17692,333.89577 253.85442,332.39184 C 254.53195,330.88796 255.6599,329.40938 257.23827,327.95611 C 259.81598,325.58279 262.27651,324.36137 264.61986,324.29185 C 266.96321,324.22239 269.03608,325.10084 270.83848,326.92719 L 266.85941,330.92731 C 265.71027,330.03535 264.63101,329.62693 263.62163,329.70204 C 262.61226,329.77721 261.52385,330.35222 260.35641,331.42708 C 259.15162,332.53638 258.4362,333.65239 258.21016,334.77509 C 258.06358,335.49682 258.23536,336.12384 258.7255,336.65617 C 259.17266,337.14185 259.76079,337.36828 260.48989,337.33546 C 261.41706,337.29289 263.10859,336.58105 265.56448,335.19994 C 268.02037,333.81887 269.96595,332.93783 271.40125,332.5568 C 272.83653,332.17583 274.23366,332.17509 275.59265,332.55461 C 276.95161,332.93417 278.22874,333.77303 279.42402,335.0712 C 280.50749,336.248 281.1953,337.65103 281.48745,339.28029 C 281.77957,340.90959 281.55793,342.52441 280.82254,344.12474 C 280.08712,345.7251 278.8275,347.34649 277.04366,348.9889 C 274.44727,351.37946 271.90079,352.6153 269.40422,352.69643 C 266.90765,352.77757 264.46626,351.79407 262.08003,349.74591 L 262.08003,349.74591 z M 265.73365,320.96139 L 269.07964,316.42521 L 281.24764,325.4006 C 283.17858,326.82492 284.47157,327.69189 285.12659,328.00151 C 286.18927,328.48565 287.26843,328.56782 288.36406,328.24804 C 289.45969,327.92827 290.47473,327.13495 291.4092,325.86808 C 292.35874,324.5808 292.81158,323.41617 292.76773,322.37419 C 292.72388,321.33223 292.36781,320.46224 291.69954,319.76421 C 291.03126,319.06621 289.80827,318.06157 288.03058,316.75028 L 275.60206,307.58272 L 278.94805,303.04654 L 290.74825,311.75063 C 293.44543,313.74017 295.2604,315.26823 296.19316,316.33483 C 297.12589,317.40148 297.73235,318.54688 298.01254,319.77103 C 298.2927,320.99522 298.25316,322.32668 297.89392,323.76541 C 297.53466,325.20418 296.69941,326.81239 295.38815,328.59007 C 293.80558,330.73557 292.35772,332.17982 291.04456,332.92282 C 289.73139,333.66583 288.44153,334.06714 287.17498,334.12674 C 285.90842,334.18635 284.76558,333.99804 283.74644,333.56181 C 282.24061,332.90856 280.23104,331.655 277.71775,329.80113 L 265.73365,320.96139 z " />
  <path
     style="fill:none;fill-rule:evenodd;stroke:none;stroke-width:1px;stroke-linecap:butt;stroke-linejoin:miter;stroke-opacity:1"
     d="M 94.3687,424.65915 C 169.73844,536.85235 317.4689,506.61087 365.50265,420.43369"
     id="path2248"
     sodipodi:nodetypes="cc" />
</svg>
